<svg width="14" height="10" viewBox="0 0 14 10" fill="none" xmlns="http://www.w3.org/2000/svg">
<path d="M5.66629 9.1807C5.53502 9.18097 5.40499 9.15531 5.28367 9.1052C5.16234 9.05509 5.05211 8.98152 4.95929 8.8887L0.717286 4.6457C0.621713 4.55352 0.545454 4.44323 0.492961 4.32126C0.440467 4.1993 0.41279 4.0681 0.411543 3.93532C0.410296 3.80254 0.435505 3.67085 0.485699 3.54792C0.535893 3.42499 0.610067 3.31328 0.703892 3.21932C0.797718 3.12537 0.909316 3.05103 1.03218 3.00067C1.15503 2.9503 1.2867 2.9249 1.41947 2.92596C1.55225 2.92702 1.68349 2.95451 1.80553 3.00683C1.92757 3.05915 2.03797 3.13526 2.13029 3.2307L5.66529 6.7657L12.0303 0.4027C12.2178 0.215059 12.4722 0.109591 12.7374 0.109497C13.0027 0.109403 13.2571 0.214692 13.4448 0.4022C13.6324 0.589708 13.7379 0.844076 13.738 1.10935C13.7381 1.37462 13.6328 1.62906 13.4453 1.8167L6.37329 8.8887C6.28046 8.98152 6.17023 9.05509 6.0489 9.1052C5.92758 9.15531 5.79755 9.18097 5.66629 9.1807Z" fill="#2FAB73"/>
</svg>
