<svg width="129" height="99" viewBox="0 0 129 99" fill="none" xmlns="http://www.w3.org/2000/svg">
<g clip-path="url(#clip0)">
<path d="M112.195 15.6812H16.8305V82.0332H112.195V15.6812Z" fill="#B62C37"/>
<path d="M16.8305 57.2048C15.4195 57.2048 14.2857 58.3414 14.2857 59.7559V82.0332C14.2857 83.4476 15.4195 84.5842 16.8305 84.5842C18.2414 84.5842 19.3752 83.4476 19.3752 82.0332V59.7559C19.3752 58.3414 18.2414 57.2048 16.8305 57.2048Z" fill="#353535"/>
<path d="M14.2857 15.681V35.5084C14.2857 36.9228 15.4195 38.0594 16.8305 38.0594C18.2414 38.0594 19.3752 36.9228 19.3752 35.5084V15.681C19.3752 14.2666 18.2414 13.13 16.8305 13.13C15.4195 13.13 14.2857 14.2666 14.2857 15.681Z" fill="#353535"/>
<path d="M39.1535 13.13C37.7426 13.13 36.6088 14.2666 36.6088 15.681V82.0331C36.6088 83.4475 37.7426 84.5841 39.1535 84.5841C40.5645 84.5841 41.6982 83.4475 41.6982 82.0331V15.681C41.6982 14.2666 40.5393 13.13 39.1535 13.13Z" fill="#353535"/>
<path d="M63.4922 13.13C62.0812 13.13 60.9474 14.2666 60.9474 15.681V82.0331C60.9474 83.4475 62.0812 84.5841 63.4922 84.5841C64.9031 84.5841 66.0369 83.4475 66.0369 82.0331V15.681C66.0369 14.2666 64.9031 13.13 63.4922 13.13Z" fill="#353535"/>
<path d="M87.8561 13.13C86.4451 13.13 85.3113 14.2666 85.3113 15.681V82.0331C85.3113 83.4475 86.4451 84.5841 87.8561 84.5841C89.267 84.5841 90.4008 83.4475 90.4008 82.0331V15.681C90.4008 14.2666 89.2418 13.13 87.8561 13.13Z" fill="#353535"/>
<path d="M100.177 48.011C98.7656 48.011 97.6318 49.1476 97.6318 50.562V82.0332C97.6318 83.4476 98.7656 84.5842 100.177 84.5842C101.588 84.5842 102.721 83.4476 102.721 82.0332V50.562C102.721 49.1476 101.588 48.011 100.177 48.011Z" fill="#353535"/>
<path d="M75.6867 64.2517C74.2758 64.2517 73.142 65.3883 73.142 66.8027V82.0331C73.142 83.4476 74.2758 84.5842 75.6867 84.5842C77.0977 84.5842 78.2315 83.4476 78.2315 82.0331V66.8027C78.2315 65.4136 77.0977 64.2517 75.6867 64.2517Z" fill="#353535"/>
<path d="M114.739 82.0331V15.681C114.739 14.2666 113.606 13.13 112.195 13.13C110.784 13.13 109.65 14.2666 109.65 15.681V82.0331C109.65 83.4475 110.784 84.5841 112.195 84.5841C113.606 84.5841 114.739 83.4475 114.739 82.0331Z" fill="#353535"/>
<path d="M27.211 39.4739C25.8 39.4739 24.6662 40.6105 24.6662 42.0249V82.0332C24.6662 83.4476 25.8 84.5842 27.211 84.5842C28.6219 84.5842 29.7557 83.4476 29.7557 82.0332V42.0249C29.7557 40.6105 28.5967 39.4739 27.211 39.4739Z" fill="#353535"/>
<path d="M51.0961 23.9404C49.6852 23.9404 48.5514 25.077 48.5514 26.4915V82.0332C48.5514 83.4476 49.6852 84.5842 51.0961 84.5842C52.507 84.5842 53.6408 83.4476 53.6408 82.0332V26.4915C53.6408 25.077 52.4818 23.9404 51.0961 23.9404Z" fill="#353535"/>
<path d="M77.9291 52.7594C77.2992 51.4965 75.7623 50.9914 74.5026 51.6228C73.2428 52.2542 72.7389 53.795 73.3688 55.0578L73.4192 55.1841C73.8727 56.0681 74.7545 56.5733 75.6867 56.5733C76.0647 56.5733 76.4678 56.4975 76.8205 56.2955C78.0803 55.664 78.5842 54.1233 77.9543 52.8604L77.9291 52.7594Z" fill="#353535"/>
<path d="M19.0729 46.4198C18.443 45.1569 16.9061 44.6518 15.6463 45.2832C14.3865 45.9146 13.8826 47.4554 14.5125 48.7182L14.5629 48.8445C15.0164 49.7285 15.8982 50.2337 16.8305 50.2337C17.2084 50.2337 17.6115 50.1579 17.9643 49.9559C19.224 49.3244 19.7279 47.7837 19.0981 46.5208L19.0729 46.4198Z" fill="#353535"/>
<path d="M2.54473 18.7373C3.95566 18.7373 5.08945 17.6007 5.08945 16.1862V5.55275H15.7219C17.1328 5.55275 18.2666 4.41615 18.2666 3.00171C18.2414 1.58728 17.1076 0.450684 15.6967 0.450684H2.54473C1.13379 0.450684 0 1.58728 0 3.00171V16.1862C0 17.6007 1.13379 18.7373 2.54473 18.7373Z" fill="#353535"/>
<path d="M126.455 0.450684H113.303C111.892 0.450684 110.759 1.58728 110.759 3.00171C110.759 4.41615 111.892 5.55275 113.303 5.55275H123.936V16.2115C123.936 17.6259 125.07 18.7625 126.48 18.7625C127.891 18.7625 129.025 17.6259 129.025 16.2115V3.00171C129 1.58728 127.866 0.450684 126.455 0.450684Z" fill="#353535"/>
<path d="M126.455 80.1136C125.044 80.1136 123.911 81.2502 123.911 82.6646V93.3234H113.278C111.867 93.3234 110.733 94.46 110.733 95.8744C110.733 97.2888 111.867 98.4254 113.278 98.4254H126.43C127.841 98.4254 128.975 97.2888 128.975 95.8744V82.6899C129 81.2502 127.866 80.1136 126.455 80.1136Z" fill="#353535"/>
<path d="M15.6967 93.2981H5.08945V82.6646C5.08945 81.2502 3.95566 80.1136 2.54473 80.1136C1.13379 80.1136 0 81.2502 0 82.6646V95.8492C0 97.2636 1.13379 98.4002 2.54473 98.4002H15.6967C17.1076 98.4002 18.2414 97.2636 18.2414 95.8492C18.2414 94.4347 17.1076 93.2981 15.6967 93.2981Z" fill="#353535"/>
</g>
<defs>
<clipPath id="clip0">
<rect width="129" height="98" fill="white" transform="translate(0 0.450684)"/>
</clipPath>
</defs>
</svg>
