<svg width="64" height="75" viewBox="0 0 64 75" fill="none" xmlns="http://www.w3.org/2000/svg">
<g clip-path="url(#clip0)">
<path d="M25.9216 51.3093C25.407 51.4993 24.8925 51.7527 24.4422 51.8794L14.794 55.4267V18.3701L0 23.8178H8.61909V64.2316L26.6291 57.6438C33.2543 55.2367 39.5578 50.6125 44.5106 44.5948L25.9216 51.3726V51.3093Z" fill="#313A3D"/>
<path d="M45.797 3.35682C40.1367 -0.507201 32.3538 -1.0773 24.3779 1.83655L5.01709 8.93114C1.99397 10.008 0 12.8585 0 16.0257V17.2926L14.794 11.9083L17.6241 10.8948L26.5648 7.60091C32.6754 5.38385 38.2714 5.63722 42.2593 8.36104C45.8613 10.8315 47.791 15.0756 47.791 20.4599C47.791 26.4776 45.3467 33.1288 40.9085 39.0832C40.394 39.78 39.8151 40.4767 39.2362 41.1735L49.206 37.4996C52.2935 31.9252 53.9015 26.0342 53.9015 20.4599C54.0302 13.0485 51.1357 6.96746 45.797 3.35682Z" fill="#313A3D"/>
<path d="M31.1316 39.7805L29.1377 35.7898V40.5406V47.0651L54.8663 37.6901C53.3869 41.4908 51.2643 45.1648 48.7558 48.5854C42.9668 56.3134 35.2482 62.2678 27.0151 65.245L24.3779 66.1952V10.5786L18.203 12.859V44.5947V75.0634L29.202 71.0727C38.593 67.6521 47.2764 61.0009 53.7729 52.2594C58.0824 46.4317 61.1698 39.9072 62.7779 33.3827L64.1286 27.8717L31.1316 39.7805Z" fill="#B62C37"/>
</g>
<g clip-path="url(#clip1)">
<path d="M25.9216 51.3093C25.407 51.4993 24.8925 51.7527 24.4422 51.8794L14.794 55.4267V18.3701L0 23.8178H8.61909V64.2316L26.6291 57.6438C33.2543 55.2367 39.5578 50.6125 44.5106 44.5948L25.9216 51.3726V51.3093Z" fill="#313A3D"/>
<path d="M45.797 3.35682C40.1367 -0.507201 32.3538 -1.0773 24.3779 1.83655L5.01709 8.93114C1.99397 10.008 0 12.8585 0 16.0257V17.2926L14.794 11.9083L17.6241 10.8948L26.5648 7.60091C32.6754 5.38385 38.2714 5.63722 42.2593 8.36104C45.8613 10.8315 47.791 15.0756 47.791 20.4599C47.791 26.4776 45.3467 33.1288 40.9085 39.0832C40.394 39.78 39.8151 40.4767 39.2362 41.1735L49.206 37.4996C52.2935 31.9252 53.9015 26.0342 53.9015 20.4599C54.0302 13.0485 51.1357 6.96746 45.797 3.35682Z" fill="#313A3D"/>
<path d="M31.1316 39.7805L29.1377 35.7898V40.5406V47.0651L54.8663 37.6901C53.3869 41.4908 51.2643 45.1648 48.7558 48.5854C42.9668 56.3134 35.2482 62.2678 27.0151 65.245L24.3779 66.1952V10.5786L18.203 12.859V44.5947V75.0634L29.202 71.0727C38.593 67.6521 47.2764 61.0009 53.7729 52.2594C58.0824 46.4317 61.1698 39.9072 62.7779 33.3827L64.1286 27.8717L31.1316 39.7805Z" fill="#B62C37"/>
</g>
<defs>
<clipPath id="clip0">
<rect width="64" height="75" fill="white"/>
</clipPath>
<clipPath id="clip1">
<rect width="64" height="75" fill="white"/>
</clipPath>
</defs>
</svg>
