<?xml version="1.0" standalone="no"?>
<!DOCTYPE svg PUBLIC "-//W3C//DTD SVG 20010904//EN"
 "http://www.w3.org/TR/2001/REC-SVG-20010904/DTD/svg10.dtd">
<svg version="1.0" xmlns="http://www.w3.org/2000/svg"
 width="1200.000000pt" height="1200.000000pt" viewBox="0 0 1200.000000 1200.000000"
 preserveAspectRatio="xMidYMid meet">

<g transform="translate(0.000000,1200.000000) scale(0.100000,-0.100000)"
fill="#000000" stroke="none">
<path d="M9530 8905 l0 -45 55 0 55 0 0 45 0 45 -55 0 -55 0 0 -45z"/>
<path d="M9400 8740 c0 -17 7 -20 50 -20 43 0 50 3 50 20 0 17 -7 20 -50 20
-43 0 -50 -3 -50 -20z"/>
<path d="M9670 8740 c0 -17 7 -20 50 -20 43 0 50 3 50 20 0 17 -7 20 -50 20
-43 0 -50 -3 -50 -20z"/>
<path d="M9530 8555 l0 -35 -89 0 -88 0 -7 -162 c-4 -90 -9 -182 -12 -205 l-6
-43 -64 0 c-62 0 -64 -1 -64 -25 0 -24 2 -25 66 -25 l67 0 -6 -57 c-4 -32 -9
-127 -13 -210 l-7 -153 -53 0 c-51 0 -54 -1 -54 -25 0 -23 3 -25 51 -25 l52 0
-7 -112 c-3 -62 -9 -155 -13 -205 l-6 -93 -38 0 c-37 0 -39 -2 -39 -30 0 -28
2 -30 38 -30 l37 0 -18 -337 c-9 -186 -44 -826 -77 -1423 -33 -597 -73 -1344
-90 -1660 -17 -316 -33 -594 -36 -618 -5 -41 -5 -42 24 -42 29 0 29 0 36 77 3
42 6 122 6 177 l0 102 93 54 c50 29 115 68 142 86 28 17 72 43 98 58 26 14 59
33 72 42 l25 16 0 -306 0 -306 35 0 35 0 1 253 0 252 31 -65 c17 -36 41 -106
53 -157 28 -111 61 -185 108 -238 30 -35 44 -43 99 -53 98 -19 348 -9 420 17
32 12 70 21 86 21 53 0 137 32 296 113 237 121 356 219 356 295 0 11 -10 32
-22 47 -19 25 -26 27 -74 23 -38 -3 -72 -16 -123 -45 -39 -23 -71 -40 -71 -37
0 2 29 52 64 111 135 229 194 365 203 468 7 89 -8 110 -72 103 -81 -10 -210
-124 -325 -290 -29 -43 -55 -76 -56 -75 -2 2 12 59 31 128 34 121 75 306 116
519 25 127 36 358 20 415 -17 64 -33 80 -81 79 -55 -2 -89 -36 -139 -138 -53
-108 -92 -228 -138 -423 -21 -90 -41 -163 -44 -163 -3 0 -9 93 -12 208 -10
329 -42 484 -108 518 -26 13 -32 13 -60 -1 -32 -17 -49 -48 -75 -142 -12 -43
-18 -124 -23 -317 -4 -165 -10 -261 -16 -263 -7 -2 -27 281 -58 839 -27 464
-64 1115 -83 1448 -19 333 -34 611 -34 618 0 7 15 12 40 12 38 0 40 2 40 29 0
28 -3 30 -42 33 l-43 3 -7 120 c-3 66 -9 157 -12 203 l-6 82 55 0 c52 0 55 1
55 25 0 24 -3 25 -54 25 l-53 0 -6 48 c-4 26 -9 120 -13 210 l-7 162 67 0 c64
0 66 1 66 25 0 24 -2 25 -64 25 -53 0 -66 3 -70 18 -2 9 -7 82 -11 162 -3 80
-8 164 -12 188 l-5 42 -84 0 -84 0 0 35 0 35 -55 0 -55 0 0 -35z m20 -150 l0
-55 35 0 35 0 0 55 0 55 50 0 c28 0 50 -4 50 -8 0 -5 -16 -27 -36 -51 -20 -23
-33 -45 -29 -49 4 -4 21 11 38 32 72 89 64 91 71 -20 3 -54 9 -134 12 -176 l6
-78 -39 0 c-21 0 -44 5 -51 12 -9 9 -12 4 -12 -25 0 -30 4 -37 19 -37 20 0 91
-78 91 -99 0 -7 -25 -41 -55 -74 -30 -34 -55 -69 -55 -77 0 -8 24 12 54 45
l54 60 5 -65 c4 -36 8 -98 11 -137 l5 -73 -65 0 c-62 0 -64 -1 -64 -25 0 -24
2 -25 64 -25 l64 0 7 -76 c4 -41 5 -78 2 -80 -3 -3 -33 29 -68 71 -35 43 -65
72 -67 66 -3 -10 53 -85 106 -140 l23 -24 -34 -36 c-77 -82 -97 -107 -97 -121
0 -16 -7 -23 82 76 l56 61 6 -45 c3 -25 6 -71 6 -103 l0 -59 -75 0 -75 0 0
-30 0 -30 80 0 80 0 0 -94 c0 -51 3 -109 6 -127 5 -33 2 -30 -80 55 -47 49
-86 82 -86 75 0 -8 38 -55 85 -104 103 -110 106 -127 38 -182 -25 -21 -71 -60
-100 -88 -88 -81 -83 -86 -83 80 l0 145 -35 0 -34 0 -3 -156 -3 -156 -117 108
c-65 59 -118 112 -118 118 0 11 39 59 128 158 28 32 52 65 52 73 0 14 -68 -56
-137 -141 l-32 -39 0 46 c-1 25 2 87 5 137 l7 92 78 0 79 0 0 30 0 30 -75 0
-75 0 0 83 c0 46 3 86 6 89 3 3 36 -27 75 -68 38 -40 69 -66 69 -58 0 8 -31
48 -70 89 -39 41 -70 83 -70 94 0 16 38 64 128 159 6 7 12 27 12 43 l0 29 -65
0 -65 0 1 73 c1 39 4 101 8 136 l6 64 58 -67 c31 -37 57 -61 57 -52 0 8 -28
47 -61 87 -53 61 -60 74 -51 93 19 42 63 86 88 86 21 0 23 4 22 45 0 43 -2 44
-15 25 -10 -14 -25 -20 -54 -20 l-41 0 6 38 c3 20 8 94 12 164 l6 126 43 -49
c24 -27 46 -45 49 -40 3 5 -12 29 -34 54 -22 25 -40 48 -40 51 0 3 29 6 65 6
l65 0 0 -55z m-140 -351 c0 -3 -7 -12 -15 -20 -13 -14 -15 -13 -15 5 0 12 6
21 15 21 8 0 15 -3 15 -6z m373 -19 c4 -26 4 -26 -14 -6 -23 24 -24 31 -5 31
7 0 16 -11 19 -25z m-369 -508 c-33 -35 -61 -63 -63 -61 -2 1 0 30 4 63 l7 61
55 0 55 0 -58 -63z m455 -1021 c7 -125 11 -230 8 -232 -2 -2 -21 13 -44 34
-112 104 -157 144 -184 164 -21 16 -29 30 -29 53 0 27 13 43 96 116 53 46 104
91 113 100 10 10 18 11 22 5 3 -6 12 -114 18 -240z m-399 105 l85 -80 -41 -38
c-49 -46 -193 -174 -214 -190 -14 -10 -14 11 -3 190 6 111 12 215 12 230 l1
29 38 -31 c20 -16 75 -66 122 -110z m80 -326 l0 -206 -47 27 c-39 23 -204 127
-223 142 -3 2 24 29 60 60 35 31 94 85 132 120 37 34 70 62 73 62 3 0 5 -92 5
-205z m230 46 c82 -77 84 -80 65 -95 -39 -30 -212 -146 -219 -146 -3 0 -6 86
-6 191 l0 191 38 -31 c20 -17 75 -66 122 -110z m114 -268 c4 -93 10 -177 13
-187 7 -25 -10 -18 -104 42 -40 26 -96 61 -125 77 -34 20 -53 37 -53 49 0 12
40 46 120 101 66 46 125 83 131 84 8 1 14 -53 18 -166z m-539 112 c17 -12 46
-31 65 -42 79 -44 130 -79 130 -89 0 -9 -101 -81 -249 -177 l-44 -28 7 103
c19 294 16 279 40 266 11 -6 35 -21 51 -33z m191 -533 c-3 -2 -20 5 -38 16
-46 29 -155 92 -203 118 -22 12 -40 27 -40 33 0 5 63 53 140 105 l140 95 3
-181 c1 -99 0 -183 -2 -186z m177 304 c45 -29 106 -68 136 -86 l53 -33 -23
-18 c-13 -10 -54 -34 -91 -53 -37 -20 -88 -49 -114 -66 -26 -16 -52 -30 -56
-30 -4 0 -8 77 -8 170 0 108 4 170 10 170 6 0 47 -24 93 -54z m191 -228 c12
-153 18 -298 12 -298 -3 0 -39 20 -79 43 -39 24 -107 63 -149 87 -62 35 -78
49 -78 67 0 13 5 23 11 23 6 0 59 29 117 64 124 74 145 85 153 86 4 0 9 -33
13 -72z m-496 -28 c64 -39 121 -70 127 -70 11 0 -65 -50 -136 -90 -26 -14 -73
-40 -104 -58 -31 -18 -59 -31 -62 -28 -3 2 -2 77 2 166 l8 162 24 -7 c13 -3
76 -37 141 -75z m132 -276 l0 -176 -152 80 c-84 44 -152 84 -152 88 1 5 41 32
90 60 49 29 116 68 149 87 33 20 61 36 63 36 1 1 2 -78 2 -175z m271 42 l86
-50 -36 -19 c-20 -10 -67 -36 -106 -57 -38 -21 -87 -45 -107 -53 l-38 -16 0
155 0 155 58 -32 c31 -18 96 -55 143 -83z m113 -83 c2 -10 8 -89 12 -175 5
-125 4 -158 -6 -158 -7 0 -51 21 -97 46 -46 25 -115 61 -153 80 -47 23 -70 40
-70 52 0 12 45 40 148 94 81 42 150 77 154 77 4 1 9 -7 12 -16z m-394 -154 c0
-3 -30 -21 -67 -40 -38 -18 -108 -55 -157 -81 -49 -26 -91 -48 -93 -48 -5 0 5
223 13 286 l5 42 149 -77 c82 -42 150 -79 150 -82z m10 -209 c0 -99 -3 -180
-8 -180 -4 0 -23 11 -42 23 -19 13 -66 41 -105 62 -100 54 -175 99 -175 105 0
6 311 169 323 170 4 0 7 -81 7 -180z m382 -20 c-39 -24 -300 -160 -307 -160
-3 0 -5 79 -5 175 l0 176 169 -88 169 -87 -26 -16z m-687 -13 c11 -8 45 -27
75 -44 107 -58 220 -125 225 -133 4 -7 -182 -120 -198 -120 -3 0 -38 -18 -77
-41 -40 -22 -73 -39 -74 -37 -6 7 18 388 24 388 3 0 14 -6 25 -13z m728 -343
l3 -51 -60 35 c-34 20 -90 52 -126 72 -121 66 -170 95 -170 102 0 8 79 54 225
130 l110 57 7 -147 c4 -81 8 -170 11 -198z m-423 -94 c0 -121 -3 -220 -8 -220
-4 0 -39 24 -78 53 -40 28 -117 84 -173 122 -55 39 -101 72 -101 75 0 3 39 26
88 52 48 25 125 67 172 91 47 25 88 46 93 46 4 1 7 -98 7 -219z m221 138 c31
-18 84 -49 118 -68 33 -19 61 -37 61 -40 -1 -3 -41 -34 -91 -70 -49 -36 -115
-85 -147 -108 -101 -78 -92 -93 -92 153 l0 215 48 -25 c26 -14 72 -40 103 -57z
m212 -215 c4 -54 7 -120 6 -148 l0 -50 -23 46 c-32 64 -50 89 -83 110 -81 54
-125 -24 -103 -184 6 -44 10 -81 7 -83 -2 -2 -40 21 -85 52 -65 44 -82 61 -82
80 0 14 7 27 18 31 9 4 53 34 98 67 44 34 94 70 109 81 16 11 49 37 74 57 25
20 49 37 52 37 3 1 9 -43 12 -96z m-696 12 c32 -22 93 -66 136 -97 43 -32 81
-58 86 -58 4 0 16 -9 27 -21 21 -24 28 -17 -96 -104 -58 -42 -107 -77 -216
-158 l-64 -48 0 28 c0 15 7 136 15 268 8 132 15 244 15 249 0 5 9 2 19 -5 11
-8 46 -32 78 -54z m259 -752 c-2 -3 -35 15 -73 40 -37 24 -90 57 -118 72 -85
48 -195 118 -195 124 1 6 67 57 134 104 23 15 54 38 69 50 16 11 63 47 105 78
l77 56 3 -260 c1 -143 0 -262 -2 -264z m137 472 c119 -80 112 -71 136 -169 23
-97 26 -141 12 -150 -5 -3 -17 7 -27 22 -61 94 -130 152 -171 144 -10 -2 -13
22 -13 93 0 52 2 95 5 95 3 0 29 -16 58 -35z m-436 -322 c28 -18 54 -33 57
-33 3 0 47 -26 98 -57 51 -32 105 -64 121 -72 15 -8 27 -19 27 -25 0 -6 -31
-29 -68 -50 -37 -22 -104 -63 -150 -90 -46 -28 -110 -66 -143 -84 -58 -32 -59
-32 -59 -10 0 13 5 125 12 250 13 258 1 238 105 171z"/>
<path d="M6140 7790 c0 -5 9 -10 20 -10 11 0 20 5 20 10 0 6 -9 10 -20 10 -11
0 -20 -4 -20 -10z"/>
<path d="M6137 7714 c-8 -8 2 -55 13 -68 5 -4 22 -5 39 -1 31 7 38 24 25 59
-6 16 -64 23 -77 10z"/>
<path d="M6185 7560 c-3 -5 3 -10 14 -10 12 0 21 5 21 10 0 6 -6 10 -14 10 -8
0 -18 -4 -21 -10z"/>
<path d="M4705 7539 c-4 -6 -4 -13 -1 -16 8 -8 36 5 36 17 0 13 -27 13 -35 -1z"/>
<path d="M6208 7492 c-23 -3 -28 -8 -28 -30 0 -43 13 -55 50 -47 30 7 32 9 26
38 -8 39 -14 44 -48 39z"/>
<path d="M4714 7460 c-18 -7 -21 -14 -15 -42 6 -29 10 -33 36 -30 41 5 48 15
40 51 -7 32 -21 37 -61 21z"/>
<path d="M5780 7313 c0 -27 79 -435 85 -441 18 -19 14 33 -20 221 -21 116 -40
218 -43 225 -6 18 -22 15 -22 -5z"/>
<path d="M4747 7314 c-4 -4 -4 -10 -1 -15 6 -10 34 0 34 12 0 10 -24 12 -33 3z"/>
<path d="M4752 7231 c-8 -5 -12 -21 -10 -37 2 -24 8 -30 32 -32 37 -5 48 7 40
46 -7 33 -32 42 -62 23z"/>
<path d="M5215 7208 c16 -74 65 -354 65 -377 0 -15 7 -36 15 -47 14 -19 14
-19 15 1 0 11 -6 58 -14 105 -8 47 -22 130 -31 185 -24 150 -25 155 -41 155
-10 0 -13 -7 -9 -22z"/>
<path d="M5978 5089 c-10 -5 -18 -19 -18 -29 0 -27 26 -37 97 -36 l63 1 0 -33
c0 -55 25 -33 28 26 2 41 -1 53 -15 60 -29 15 -136 23 -155 11z"/>
<path d="M6110 4889 c0 -11 5 -17 10 -14 6 3 10 13 10 21 0 8 -4 14 -10 14 -5
0 -10 -9 -10 -21z"/>
<path d="M5955 4819 c-73 -18 -85 -25 -136 -75 -30 -30 -70 -79 -88 -108 l-32
-54 45 -60 45 -59 -15 -89 c-46 -267 -44 -242 -20 -257 92 -58 296 -77 455
-43 40 9 77 19 82 22 6 3 9 90 9 201 l-2 195 54 48 53 47 -27 39 c-49 70 -150
160 -210 187 -59 26 -68 23 -45 -14 10 -17 9 -22 -8 -35 -13 -9 -30 -12 -50
-8 -43 9 -51 20 -32 42 18 19 23 43 10 41 -5 0 -44 -9 -88 -20z"/>
<path d="M7278 4644 c-54 -57 -67 -81 -68 -120 0 -33 -49 -102 -102 -143 -41
-33 -64 -78 -88 -171 -23 -89 -30 -177 -18 -220 14 -51 104 -82 316 -111 55
-7 96 -8 101 -3 5 5 11 23 14 41 6 30 4 33 -31 44 -20 7 -83 35 -140 62 -89
44 -102 54 -98 71 3 12 15 75 26 141 16 90 19 128 12 152 -9 30 -8 32 21 42
16 6 40 11 52 11 32 0 47 23 47 75 0 47 3 51 27 36 9 -6 22 -6 32 0 11 6 20 5
24 -1 9 -14 58 -13 73 2 16 16 15 53 -3 87 -16 32 -59 51 -116 51 -32 0 -44
-7 -81 -46z"/>
<path d="M7485 4284 c4 -21 10 -79 14 -129 6 -77 8 -85 15 -54 6 29 14 39 37
45 l29 9 -35 71 c-19 39 -42 77 -50 84 -14 12 -15 9 -10 -26z"/>
<path d="M2673 3938 c-38 -13 -55 -44 -78 -146 -9 -39 -21 -74 -26 -77 -5 -4
-9 -13 -9 -21 0 -10 13 -14 50 -14 l50 0 0 50 c0 28 -4 50 -10 50 -5 0 -10 7
-10 15 0 8 7 15 15 15 8 0 15 9 15 19 0 21 17 24 73 14 25 -4 27 -8 27 -48 0
-53 -8 -75 -26 -75 -8 0 -14 -8 -14 -19 0 -17 33 -31 76 -31 17 0 19 71 3 173
-15 101 -47 123 -136 95z"/>
<path d="M7277 3847 c-3 -8 -23 -17 -45 -20 -21 -4 -70 -16 -107 -28 l-67 -20
7 -57 c4 -30 11 -66 16 -79 l9 -23 -380 0 -379 0 5 -32 c4 -18 9 -49 13 -68
l7 -35 602 -3 c548 -2 602 -4 602 -18 0 -9 26 -97 57 -195 l57 -179 53 0 c39
0 53 -4 53 -14 0 -10 -13 -16 -37 -18 -31 -3 -38 -7 -45 -33 -5 -22 -4 -32 7
-38 9 -5 15 -22 15 -42 l0 -35 48 0 c27 0 57 -6 68 -15 23 -17 44 -19 44 -4 0
6 -16 33 -35 59 l-36 49 3 118 3 118 19 -54 18 -53 72 7 c39 4 73 8 75 11 2 2
-12 72 -32 156 -30 130 -34 165 -30 236 l5 82 -25 0 c-22 0 -26 6 -32 39 -10
58 -75 145 -129 170 -42 21 -51 21 -173 12 -70 -5 -130 -6 -133 -1 -3 4 -42
10 -86 14 -66 6 -82 4 -87 -7z"/>
<path d="M1154 3735 c-16 -25 -33 -123 -34 -210 -2 -49 -2 -48 -29 50 -29 110
-55 162 -85 171 -56 18 -59 -105 -8 -306 16 -63 29 -116 28 -117 -1 -1 -20 20
-41 48 -67 84 -135 111 -135 53 0 -13 24 -71 54 -128 l54 -105 -38 20 c-59 31
-97 3 -59 -45 29 -37 173 -112 253 -131 59 -15 77 -16 127 -5 69 15 78 24 138
150 46 95 59 157 41 200 -16 39 -38 38 -73 -2 l-28 -33 7 55 c4 30 8 78 8 105
1 44 -2 50 -19 50 -14 0 -28 -16 -47 -52 -33 -66 -40 -54 -44 80 -4 147 -33
209 -70 152z"/>
<path d="M5876 3577 c-9 -23 -16 -55 -16 -70 0 -24 4 -27 35 -27 l35 0 0 -285
0 -285 50 0 50 0 0 285 0 285 45 0 c51 0 52 0 29 82 l-17 58 -97 0 -97 0 -17
-43z"/>
<path d="M3207 3073 l-25 -68 -158 -6 c-235 -10 -279 -10 -389 0 -141 12 -237
42 -314 99 -32 24 -35 24 -90 12 -145 -32 -214 -101 -196 -196 17 -93 243
-156 479 -134 55 6 109 12 120 15 12 3 -21 -15 -72 -40 -53 -25 -91 -49 -87
-55 10 -16 33 -12 135 21 87 28 103 30 188 25 116 -7 385 10 472 30 121 28
187 82 196 161 8 65 -14 112 -69 148 -32 22 -122 53 -158 55 -4 0 -18 -30 -32
-67z"/>
<path d="M7882 3090 c-11 -29 -10 -30 56 -66 37 -20 77 -43 89 -50 12 -8 25
-14 27 -14 11 0 -9 37 -41 76 -18 23 -33 48 -33 56 0 16 -28 28 -67 28 -14 0
-24 -9 -31 -30z"/>
<path d="M2756 3025 c-9 -26 -7 -32 5 -12 6 10 9 21 6 23 -2 3 -7 -2 -11 -11z"/>
<path d="M5759 2873 c-1 -5 -2 -17 -3 -27 -1 -14 -23 -28 -79 -52 -44 -18 -86
-35 -95 -37 -10 -3 51 -5 134 -6 l151 -1 -15 65 -16 65 -38 0 c-21 0 -38 -3
-39 -7z"/>
<path d="M6343 2854 c2 -22 -6 -29 -68 -56 -38 -16 -81 -34 -95 -38 -15 -5 35
-9 126 -9 l151 -1 -15 65 -16 65 -42 0 c-40 0 -43 -2 -41 -26z"/>
</g>
</svg>
